<svg version="1.1" xmlns="http://www.w3.org/2000/svg" viewBox="0 0 1118.4001159667969 349.5999450683594" width="1118.4001159667969" height="349.5999450683594" filter="invert(93%) hue-rotate(180deg)">
  <!-- svg-source:excalidraw -->
  
  <defs>
    <style>
      @font-face {
        font-family: "Virgil";
        src: url("https://excalidraw.com/Virgil.woff2");
      }
      @font-face {
        font-family: "Cascadia";
        src: url("https://excalidraw.com/Cascadia.woff2");
      }
    </style>
  </defs>
  <rect x="0" y="0" width="1118.4001159667969" height="349.5999450683594" fill="#ffffff"></rect><g stroke-linecap="round" transform="translate(10 187.60000610351562) rotate(0 117.19999694824219 46.399993896484375)"><path d="M1.27 -0.95 C89.41 -1.78, 180.57 -1.16, 234.94 1.58 M0.34 0.74 C65.23 0.89, 131.24 1.39, 233.74 0.55 M233.01 -1.86 C233.51 34.97, 233.18 71.48, 235.23 92.74 M235.19 -0.55 C234.21 21.99, 234.94 44.75, 233.73 92.16 M232.86 92.82 C144.92 91.1, 51.61 90.67, -0.66 91.91 M234.19 92.8 C172.16 94.74, 108.75 93.79, 0.35 92.57 M1.21 94.61 C0.33 57.87, -0.08 24.63, -0.33 -0.61 M0.2 91.98 C-0.27 59.5, 0.2 24.29, -0.2 0.46" stroke="#000000" stroke-width="1" fill="none"></path></g><g transform="translate(58.800018310546875 204.0290236934539) rotate(0 66.80000305175781 26.93548510151524)"><text x="0" y="18.935485101515233" font-family="Virgil, Segoe UI Emoji" font-size="21.548388081212195px" fill="#000000" text-anchor="start" style="white-space: pre;" direction="ltr">wiki_title</text><text x="0" y="45.87097020303047" font-family="Virgil, Segoe UI Emoji" font-size="21.548388081212195px" fill="#000000" text-anchor="start" style="white-space: pre;" direction="ltr">project_lang</text></g><g stroke-linecap="round"><g transform="translate(170.78618946754568 186.60000610351562) rotate(0 27.365797733308227 -54.790288577228765)"><path d="M-0.83 0.72 C8.06 -17.74, 44.24 -92.04, 53.4 -110.3 M0.93 0.05 C10.18 -18.34, 46.85 -90.83, 55.56 -109.34" stroke="#000000" stroke-width="1" fill="none"></path></g><g transform="translate(170.78618946754568 186.60000610351562) rotate(0 27.365797733308227 -54.790288577228765)"><path d="M55.15 -107.83 L55.63 -94.71 L44.77 -98.52 L57.04 -110.19" stroke="none" stroke-width="0" fill="#000000" fill-rule="evenodd"></path><path d="M56.46 -110.65 C54.16 -105.2, 55.87 -101.73, 54.07 -94.98 M54.82 -109.76 C55.65 -105.56, 55.13 -102.11, 54.76 -94.1 M54.67 -94.04 C50.33 -95.96, 47.3 -97.22, 45.1 -99.21 M55.67 -94.18 C50.69 -96.5, 46.31 -99.16, 43.63 -100.56 M43.38 -99.88 C46.97 -103.81, 51.29 -105.72, 56.1 -110.1 M43.65 -100.65 C47.72 -102.68, 49.93 -104.89, 55.32 -109.59 M55.56 -109.34 C55.56 -109.34, 55.56 -109.34, 55.56 -109.34 M55.56 -109.34 C55.56 -109.34, 55.56 -109.34, 55.56 -109.34" stroke="#000000" stroke-width="1" fill="none"></path></g></g><g stroke-linecap="round" transform="translate(202.80001831054688 10) rotate(0 93.60000610351562 33.20000457763672)"><path d="M-0.85 -0.76 C65.26 -3.14, 130.7 -1.8, 188 -0.44 M0.64 -0.49 C56.21 0.28, 112.85 -1, 187.19 -0.09 M186.96 -0.61 C186.83 21.52, 187.91 39.84, 185.93 64.43 M187.85 0.82 C188.01 14.21, 187.16 27.92, 187.43 66.37 M186.9 67.45 C141.35 66.07, 92.14 68.01, 1.22 65.23 M186.63 66.44 C127.07 67.11, 68.14 67.44, 0.89 66.77 M1.47 66.4 C0.51 45.47, -0.83 25.55, 1.64 0.95 M-0.85 66.98 C1.4 45.38, 1.22 24.67, 0.55 0.57" stroke="#000000" stroke-width="1" fill="none"></path></g><g transform="translate(208.60000610351562 21.100006103515625) rotate(0 86.5 25)"><text x="0" y="17" font-family="Virgil, Segoe UI Emoji" font-size="20px" fill="#000000" text-anchor="start" style="white-space: pre;" direction="ltr">a new      </text><text x="0" y="42" font-family="Virgil, Segoe UI Emoji" font-size="20px" fill="#000000" text-anchor="start" style="white-space: pre;" direction="ltr">       is created</text></g><g transform="translate(280.2000427246094 19.899978637695312) rotate(0 41.5 12)"><text x="0" y="19" font-family="Cascadia, Segoe UI Emoji" font-size="20px" fill="#000000" text-anchor="start" style="white-space: pre;" direction="ltr">Project</text></g><g stroke-linecap="round"><g transform="translate(395.53791281229496 41.339028989590986) rotate(0 113.42954360142312 27.351740505762365)"><path d="M0.12 0.51 C38.06 9.43, 190.4 44.73, 228.14 53.86 M-1.28 -0.27 C36.51 8.76, 189.12 46.04, 227.48 54.97" stroke="#000000" stroke-width="1" fill="none"></path></g><g transform="translate(395.53791281229496 41.339028989590986) rotate(0 113.42954360142312 27.351740505762365)"><path d="M229.24 54.15 L211.05 58.9 L216.82 45.39 L227.28 54.68" stroke="none" stroke-width="0" fill="#000000" fill-rule="evenodd"></path><path d="M228.12 55.66 C221.45 54.71, 218.27 58.29, 212.48 58.66 M227.57 54.52 C222 56.19, 216.61 56.64, 213.37 57.77 M212.76 58.49 C214.2 53.5, 216.1 47.19, 216.67 45.05 M212.66 58.09 C213.71 53.72, 214.75 50.32, 215.75 45.3 M217.21 46.1 C217.9 47.25, 222.36 50.95, 226.21 56.31 M215.98 45.57 C218.42 47.76, 220.57 49.71, 227.93 55.62 M227.48 54.97 C227.48 54.97, 227.48 54.97, 227.48 54.97 M227.48 54.97 C227.48 54.97, 227.48 54.97, 227.48 54.97" stroke="#000000" stroke-width="1" fill="none"></path></g></g><g stroke-linecap="round" transform="translate(628.3999938964844 89.20001220703125) rotate(0 164 38.79998779296875)"><path d="M0.8 0.02 C91.01 0.41, 182.83 -0.23, 329.35 0.42 M-0.29 -0.58 C66.27 0.68, 131.78 1.19, 328.22 -0.06 M327.21 1.19 C329.66 20.12, 327.69 44.03, 326.23 76.01 M328.35 -0.91 C326.5 17.66, 327.31 34.29, 328.43 77.91 M328.73 77.28 C217.52 77.66, 104.72 75.26, 0.64 78.34 M327.9 77.47 C233.71 77.61, 139.29 77.18, -0.27 77 M-0.99 76.93 C0.29 50.62, 0.4 27.33, -0.3 1.59 M-0.24 77.73 C-1.13 57.15, -1.48 35.83, 0.67 0.47" stroke="#000000" stroke-width="1" fill="none"></path></g><g transform="translate(478.35657155529873 48.05863465203885) rotate(14.304476267389044 48.5 12.5)"><text x="0" y="17" font-family="Virgil, Segoe UI Emoji" font-size="20px" fill="#000000" text-anchor="start" style="white-space: pre;" direction="ltr">    called</text></g><g transform="translate(440.8000183105469 33.5) rotate(14.355950954575386 35.5 12)"><text x="0" y="19" font-family="Cascadia, Segoe UI Emoji" font-size="20px" fill="#000000" text-anchor="start" style="white-space: pre;" direction="ltr">signal</text></g><g transform="translate(658.8000183105469 103.89999389648438) rotate(0 146.5 24)"><text x="0" y="19" font-family="Cascadia, Segoe UI Emoji" font-size="20px" fill="#000000" text-anchor="start" style="white-space: pre;" direction="ltr">Wikipedia Summary fetched</text><text x="0" y="43" font-family="Cascadia, Segoe UI Emoji" font-size="20px" fill="#000000" text-anchor="start" style="white-space: pre;" direction="ltr">and split into sentences</text></g><g stroke-linecap="round"><g transform="translate(822.5637930975972 168.39999389648438) rotate(0 40.025580321413145 37.54836468239313)"><path d="M-0.32 0.4 C13.26 13, 66.88 62.2, 80.38 74.62 M1.71 -0.44 C15.19 12.35, 66.17 62.83, 79.19 75.53" stroke="#000000" stroke-width="1" fill="none"></path></g><g transform="translate(822.5637930975972 168.39999389648438) rotate(0 40.025580321413145 37.54836468239313)"><path d="M79.22 74.87 L65.32 72.33 L75.27 60.2 L80.52 77.08" stroke="none" stroke-width="0" fill="#000000" fill-rule="evenodd"></path><path d="M79.69 74.96 C74.86 74.26, 72.35 73.82, 66.07 70.99 M79.55 75.58 C74.25 73.38, 69.09 72.89, 65.72 70.9 M65.65 69.56 C67.92 66.83, 71.93 62.91, 74.53 62.51 M64.72 70.21 C68.58 67.62, 71.83 64.13, 73.34 60.99 M75.26 60.25 C76.57 64.52, 76.96 68.5, 78.44 76.82 M73.79 61.52 C75.35 65.91, 77.37 71.26, 79.12 75.21 M79.19 75.53 C79.19 75.53, 79.19 75.53, 79.19 75.53 M79.19 75.53 C79.19 75.53, 79.19 75.53, 79.19 75.53" stroke="#000000" stroke-width="1" fill="none"></path></g></g><g stroke-linecap="round" transform="translate(753.2000427246094 243.5999755859375) rotate(0 177.60003662109375 47.99998474121094)"><path d="M0.7 -0.02 C77.98 0.34, 156.51 -0.02, 356.43 -0.01 M0.29 0.49 C78.12 -0.07, 156.5 0.09, 355.42 -0.48 M356.61 -0.03 C353.79 35.39, 356.46 71.63, 356.58 96.63 M355.06 0.26 C355.26 32.15, 355.77 65.38, 355.42 96.51 M355.2 96.83 C246.75 96.61, 136.74 97.03, 0.18 95.44 M355.67 95.47 C243.71 98.2, 132.38 97.15, 0.13 95.89 M0.72 96.99 C-2.08 73.95, -0.44 48.72, -0.44 1.49 M0.01 95.83 C1.81 74.59, 0.68 53.27, 0.5 0.72" stroke="#000000" stroke-width="1" fill="none"></path></g><g transform="translate(770.8000183105469 255.29995727539062) rotate(0 164 25)"><text x="0" y="17" font-family="Virgil, Segoe UI Emoji" font-size="20px" fill="#000000" text-anchor="start" style="white-space: pre;" direction="ltr">all            are batch created</text><text x="0" y="42" font-family="Virgil, Segoe UI Emoji" font-size="20px" fill="#000000" text-anchor="start" style="white-space: pre;" direction="ltr">in the database with that </text></g><g transform="translate(802.4000549316406 254.29995727539062) rotate(0 53 12)"><text x="0" y="19" font-family="Cascadia, Segoe UI Emoji" font-size="20px" fill="#000000" text-anchor="start" style="white-space: pre;" direction="ltr">Sentences</text></g><g transform="translate(772.3999938964844 307.4999694824219) rotate(0 59 12)"><text x="0" y="19" font-family="Cascadia, Segoe UI Emoji" font-size="20px" fill="#000000" text-anchor="start" style="white-space: pre;" direction="ltr">Project_id</text></g><g transform="translate(201.52778697013855 125.29998779296875) rotate(0 24 12)"><text x="0" y="19" font-family="Cascadia, Segoe UI Emoji" font-size="20px" fill="#000000" text-anchor="start" style="white-space: pre;" direction="ltr">data</text></g><g transform="translate(259.92781138420105 126.29998779296875) rotate(0 21.5 12.5)"><text x="0" y="17" font-family="Virgil, Segoe UI Emoji" font-size="20px" fill="#000000" text-anchor="start" style="white-space: pre;" direction="ltr">sent</text></g></svg>